<?xml version="1.0" standalone="no"?><!DOCTYPE svg PUBLIC "-//W3C//DTD SVG 1.1//EN" "http://www.w3.org/Graphics/SVG/1.1/DTD/svg11.dtd"><svg t="1576809456184" class="icon" viewBox="0 0 1024 1024" version="1.1" xmlns="http://www.w3.org/2000/svg" p-id="2932" xmlns:xlink="http://www.w3.org/1999/xlink" width="200" height="200"><defs><style type="text/css"></style></defs><path d="M284.871 907.568H150.205c13.591-187.603 170.57-336.073 361.575-336.073 44.829 0 87.784 8.182 127.45 23.128l40.615-40.616c-2.11-0.936-4.217-1.873-6.343-2.774a416.153 416.153 0 0 0-35.687-13.202c19.187-11.036 37.04-24.672 53.11-40.742 47.855-47.854 74.209-111.475 74.209-179.147 0-67.677-26.354-131.298-74.208-179.152-47.849-47.853-111.475-74.206-179.147-74.206-67.677 0-131.298 26.353-179.151 74.206-47.854 47.854-74.208 111.475-74.208 179.152 0 67.672 26.354 131.293 74.208 179.147 16.07 16.07 33.93 29.706 53.116 40.742a415.511 415.511 0 0 0-35.687 13.202c-49.476 20.926-93.904 50.874-132.051 89.022-38.145 38.146-68.095 82.574-89.023 132.05-21.672 51.237-32.657 105.647-32.657 161.723 0 14.615 11.848 26.463 26.465 26.463h162.08c14.617 0 26.465-11.848 26.465-26.463 0-14.618-11.848-26.46-26.465-26.46z m26.48-589.425c0-110.52 89.91-200.433 200.43-200.433s200.43 89.912 200.43 200.433c0 110.516-89.91 200.429-200.43 200.429-110.52 0-200.43-89.913-200.43-200.429z m583.227 454.162c-18.859-44.577-45.061-85.037-77.96-120.515l-37.571 37.57c53.54 58.44 88.237 134.41 94.307 218.21H738.657c-14.617 0-26.46 11.848-26.46 26.459 0 14.615 11.843 26.464 26.46 26.464h162.111c14.617 0 26.465-11.849 26.465-26.464 0.002-56.073-10.988-110.487-32.655-161.724z m-93.651-222.804c-10.338-10.333-27.09-10.333-37.424 0L510.998 802.007 400.291 691.3c-10.334-10.334-27.09-10.334-37.425 0-10.333 10.333-10.333 27.09 0 37.425l129.42 129.418a26.376 26.376 0 0 0 18.712 7.747 26.376 26.376 0 0 0 18.711-7.747l271.218-271.216c10.333-10.335 10.333-27.091 0-37.426z m0 0" p-id="2933"></path></svg>