<?xml version="1.0" standalone="no"?><!DOCTYPE svg PUBLIC "-//W3C//DTD SVG 1.1//EN" "http://www.w3.org/Graphics/SVG/1.1/DTD/svg11.dtd"><svg t="1576049967328" class="icon" viewBox="0 0 1024 1024" version="1.1" xmlns="http://www.w3.org/2000/svg" p-id="3798" xmlns:xlink="http://www.w3.org/1999/xlink" width="200" height="200"><defs><style type="text/css"></style></defs><path d="M512.290783 224.581055c-65.5389 0-118.459437 53.095621-118.459436 118.353976 0 65.435487 52.921561 118.424624 118.459436 118.424625 65.399651 0 118.359096-52.989137 118.359096-118.424625 0-65.259379-52.959445-118.353976-118.359096-118.353976z m-0.034812 205.049418c-47.910666 0-86.55517-38.887165-86.555169-86.696466 0-47.697698 38.644504-86.55517 86.555169-86.555169 47.737629 0 86.483498 38.857472 86.483498 86.555169 0 47.840018-38.745868 86.696466-86.483498 86.696466zM573.438239 773.21772c-16.558273 21.123778-32.978322 30.420657-48.46254 34.360567-4.355608 1.044363-8.572992 1.701697-12.719728 2.106132-4.114995-0.404435-8.399955-1.002384-12.719727-2.106132-15.486266-3.939911-31.940103-13.236789-48.497352-34.360567 0 0-85.484186 75.637481-11.476731 162.122002l35.914826-33.672517 36.052026 56.173421v2.035484l0.070648 0.071672 0.65631-1.003408 0.586687 1.003408 0.067576-0.071672v-2.035484l36.125746-56.173421 35.844177 33.672517c74.044315-86.524453-11.441919-162.122002-11.441918-162.122002z m6.257987 126.17134l-32.563649-36.570112-34.876606 49.390181-34.876605-49.390181-32.596414 36.570112c-30.107348-62.221511 8.917017-89.46198 8.917018-89.46198 15.590702 18.90809 21.154495 18.776009 43.105572 22.957557 2.141968 0.690099 8.745005 0.789416 14.760331 1.206137v0.111603c0.206825 0 0.483274-0.041979 0.725934-0.071672 0.207849 0.029693 0.448462 0.071672 0.692147 0.071672v-0.111603c6.047067-0.415697 12.614267-0.547779 14.757259-1.206137 21.914218-4.181548 27.484154-4.049466 43.140384-22.957557-0.035836 0 38.923001 27.2118 8.814629 89.46198z" fill="" p-id="3799"></path><path d="M710.43 495.891212C821.213368 238.303166 549.695362 83.823444 512.255971 64.051194 474.819652 83.823444 203.369223 238.303166 314.083991 495.891212c0 0-165.400483 126.243013 16.453837 331.940551L434.724303 691.026349l50.535908 50.462188 26.99576 5.257651 27.028525-5.257651 50.537956-50.462188 104.180332 136.80439c181.860464-205.665797 16.427216-331.939527 16.427216-331.939527z m-17.4296 279.613867l-100.721647-134.292799-65.156991 65.156991-14.866815 3.565168-14.864767-3.565168-65.15699-65.156991-100.694002 134.292799c-133.288368-152.025469 21.709441-270.59139 21.70944-270.591389-101.66055-257.244021 121.641672-368.78916 159.007343-390.359352 37.368743 21.570192 260.697586 133.116355 159.003248 390.360376 0 0.035836 155.03262 118.565921 21.741181 270.590365z" fill="" p-id="3800"></path></svg>