<?xml version="1.0" standalone="no"?><!DOCTYPE svg PUBLIC "-//W3C//DTD SVG 1.1//EN" "http://www.w3.org/Graphics/SVG/1.1/DTD/svg11.dtd"><svg t="1572402407962" class="icon" viewBox="0 0 1024 1024" version="1.1" xmlns="http://www.w3.org/2000/svg" p-id="15994" xmlns:xlink="http://www.w3.org/1999/xlink" width="200" height="200"><defs><style type="text/css"></style></defs><path d="M564.561145 880.242127h-105.12229c-100.515337 0-181.974642-81.459305-181.974642-181.974642v-299.451943c0-8.166871 6.701022-14.867894 14.867893-14.867894h439.335788c8.166871 0 14.867894 6.701022 14.867893 14.867894v299.451943c0 100.515337-81.459305 181.974642-181.974642 181.974642z" fill="#7de5db" p-id="15995"></path><path d="M353.688344 283.013497c0 10.470348 8.585685 19.056033 19.056032 19.056033s19.056033-8.585685 19.056033-19.056033c0-66.382004 54.026994-120.408998 120.408998-120.408998s120.408998 54.026994 120.408998 120.408998c0 10.470348 8.585685 19.056033 19.056033 19.056033s19.056033-8.585685 19.056032-19.056033c0-87.322699-70.988957-158.311656-158.311656-158.311657s-158.73047 70.988957-158.73047 158.311657z" fill="" p-id="15996"></path><path d="M1004.943967 574.717382H765.59182v-77.480572h60.518609c46.488344 0 84.600409-37.902658 84.600409-84.391002v-94.442536c0-10.470348-8.585685-19.056033-19.056032-19.056033s-19.056033 8.585685-19.056033 19.056033v94.442536c0 25.757055-20.940695 46.488344-46.488344 46.488343h-60.518609v-45.441308c0-27.013497-21.98773-49.001227-49.001227-49.001227H307.409407c-27.013497 0-49.001227 21.98773-49.001227 49.001227v45.650715H197.889571c-25.757055 0-46.488344-20.940695-46.488344-46.488343v-94.442536c0-10.470348-8.585685-19.056033-19.056033-19.056033s-19.056033 8.585685-19.056032 19.056033v94.442536c0 46.488344 37.902658 84.391002 84.600409 84.391002h60.518609v77.480572H19.056033c-10.470348 0-19.056033 8.585685-19.056033 19.056033s8.585685 19.056033 19.056033 19.056033h239.352147v76.852352H197.889571c-46.488344 0-84.600409 37.902658-84.600409 84.391002v94.442535c0 10.470348 8.585685 19.056033 19.056032 19.056033s19.056033-8.585685 19.056033-19.056033v-94.442535c0-25.757055 20.940695-46.488344 46.488344-46.488344h63.031492c15.496115 97.164826 99.67771 171.504294 201.030675 171.504295h99.887117c101.352965 0 185.743967-74.548875 201.030675-171.504295h63.240899c25.757055 0 46.488344 20.940695 46.488344 46.488344v94.442535c0 10.470348 8.585685 19.056033 19.056033 19.056033s19.056033-8.585685 19.056032-19.056033v-94.442535c0-46.488344-37.902658-84.391002-84.600409-84.391002h-60.518609v-76.852352h239.352147c10.470348 0 19.056033-8.585685 19.056033-19.056033-0.209407-10.679755-8.585685-19.26544-19.056033-19.26544z m-708.423722 120.827812v-281.652351c0-6.072802 5.025767-11.098569 11.098569-11.098569h185.53456v458.39182h-30.992229c-91.510838 0-165.6409-74.339468-165.6409-165.6409z m265.31861 165.6409h-30.992229v-458.39182h185.53456c6.072802 0 11.098569 5.025767 11.098569 11.098569v281.652351c0 91.301431-74.130061 165.6409-165.6409 165.6409z" fill="" p-id="15997"></path></svg>