<?xml version="1.0" standalone="no"?><!DOCTYPE svg PUBLIC "-//W3C//DTD SVG 1.1//EN" "http://www.w3.org/Graphics/SVG/1.1/DTD/svg11.dtd"><svg t="1572402382162" class="icon" viewBox="0 0 1024 1024" version="1.1" xmlns="http://www.w3.org/2000/svg" p-id="15281" xmlns:xlink="http://www.w3.org/1999/xlink" width="200" height="200"><defs><style type="text/css"></style></defs><path d="M696.76544 768h-369.530435a32.01113 32.01113 0 0 0 0 64.022261h369.530435a32.01113 32.01113 0 0 0 0-64.022261z m123.325217-607.98887h-61.44a62.909217 62.909217 0 0 0-61.885217-64.02226h-30.72v-32.011131A62.820174 62.820174 0 0 0 604.60544 0H419.395005a62.820174 62.820174 0 0 0-61.44 63.977739v32.011131h-30.72a62.909217 62.909217 0 0 0-61.885217 64.02226H203.909788A94.297043 94.297043 0 0 0 111.30457 256v672.01113A94.297043 94.297043 0 0 0 203.909788 1024h616.180869A94.297043 94.297043 0 0 0 912.695875 928.01113V256a94.297043 94.297043 0 0 0-92.605218-95.98887z m-446.99826 0h46.302608v-32.01113a62.909217 62.909217 0 0 1 61.885218-64.022261h61.44a62.909217 62.909217 0 0 1 61.885217 64.022261v32.01113h46.302609a48.038957 48.038957 0 0 1 0 95.98887H373.092397a48.038957 48.038957 0 0 1 0-95.98887z m478.163478 735.98887a62.909217 62.909217 0 0 1-61.885218 64.022261H234.629788a62.909217 62.909217 0 0 1-61.885218-64.022261V288.01113a62.909217 62.909217 0 0 1 61.885218-64.02226h30.72v32.01113a62.909217 62.909217 0 0 0 61.885217 64.022261h369.530435c37.843478 0 50.754783-33.302261 60.549565-64.957218a106.852174 106.852174 0 0 0 1.335652-31.165217h30.72a62.909217 62.909217 0 0 1 61.885218 64.022261v607.98887z m-154.490435-288.01113h-369.530435a32.01113 32.01113 0 0 0 0 64.02226h369.530435a32.01113 32.01113 0 0 0 0-64.02226z m0-159.966609h-369.530435a32.01113 32.01113 0 0 0 0 63.977739h369.530435a32.01113 32.01113 0 0 0 0-63.977739z" p-id="15282"></path></svg>