<?xml version="1.0" standalone="no"?><!DOCTYPE svg PUBLIC "-//W3C//DTD SVG 1.1//EN" "http://www.w3.org/Graphics/SVG/1.1/DTD/svg11.dtd"><svg class="icon" width="200px" height="195.98px" viewBox="0 0 1045 1024" version="1.1" xmlns="http://www.w3.org/2000/svg"><path fill="#333333" d="M599.253333 134.72l220.842667 23.808a64 64 0 0 1 56.789333 56.768l23.786667 220.842667a64 64 0 0 1-18.368 52.096L510.933333 859.584a64 64 0 0 1-90.517333 0L175.808 614.954667a64 64 0 0 1 0-90.496L547.157333 153.109333a64 64 0 0 1 52.117334-18.389333z m-6.826666 63.637333L221.034667 569.706667 465.706667 814.336l371.328-371.349333-23.786667-220.821334-220.842667-23.808zM652.309333 277.333333a96 96 0 1 1 0 192 96 96 0 0 1 0-192z m0 64a32 32 0 1 0 0 64 32 32 0 0 0 0-64z" /></svg>