<?xml version="1.0" standalone="no"?><!DOCTYPE svg PUBLIC "-//W3C//DTD SVG 1.1//EN" "http://www.w3.org/Graphics/SVG/1.1/DTD/svg11.dtd"><svg t="1572402924582" class="icon" viewBox="0 0 1024 1024" version="1.1" xmlns="http://www.w3.org/2000/svg" p-id="24226" xmlns:xlink="http://www.w3.org/1999/xlink" width="200" height="200"><defs><style type="text/css"></style></defs><path d="M823.818795 442.814268l-20.941961 0L802.876834 322.822406c0-13.066597-5.088902-25.351388-14.328333-34.592866L642.22083 141.903917c-9.239432-9.239432-21.524223-14.328333-34.591843-14.328333L276.078803 127.575584c-12.896728 0-26.27134 4.695952-36.694737 12.882402-11.776208 9.249665-18.260899 21.596877-18.260899 34.769898l0 267.586384-20.941961 0c-24.836665 0-45.041846 20.206204-45.041846 45.041846l0 183.638437c0 24.836665 20.205181 45.041846 45.041846 45.041846l20.941961 0 0 132.236743c0 28.082592 28.962635 47.6523 54.955636 47.6523L753.955634 896.42544c26.974351 0 48.921199-21.945825 48.921199-48.921199L802.876834 716.535373l20.941961 0c24.836665 0 45.041846-20.205181 45.041846-45.041846L868.86064 487.85509C868.859617 463.019449 848.654436 442.814268 823.818795 442.814268zM773.572414 302.19767 655.4399 302.19767c-15.752776 0-27.185152-11.4334-27.185152-27.249621l-0.73985-118.79664c0.077771 0.075725 0.158612 0.147356 0.23536 0.224104L773.572414 302.19767zM241.58929 175.227883c0-12.57234 15.066137-27.186176 34.489512-27.186176l331.003739 0c-0.049119 0.415462-0.080841 0.835018-0.077771 1.263783l0.783853 125.706003c0 27.16571 20.48659 47.6523 47.651276 47.6523l126.966717 0c0 0.053212 0.004093 0.105401 0.004093 0.158612l0 119.990838L241.58929 442.813245 241.58929 175.227883zM782.41071 847.503217c0 15.690354-12.764722 28.455075-28.455075 28.455075L276.078803 875.958292c-15.94925 0-34.489512-11.875468-34.489512-27.186176L241.58929 716.535373l540.821419 0L782.41071 847.503217zM848.393493 671.493527c0 13.550621-11.024078 24.575722-24.575722 24.575722L200.181205 696.069249c-13.550621 0-24.575722-11.024078-24.575722-24.575722L175.605483 487.85509c0-13.550621 11.024078-24.575722 24.575722-24.575722l623.63759 0c13.550621 0 24.575722 11.024078 24.575722 24.575722L848.394517 671.493527z" p-id="24227"></path><path d="M377.173269 520.717546c-5.705955-7.277754-13.057387-13.018501-22.062482-17.222243-9.005095-4.199649-19.663852-6.303566-31.968086-6.303566l-66.6377 0 0 160.741961 66.6377 0c12.304234 0 22.962991-2.099824 31.968086-6.303566 9.005095-4.199649 16.356526-9.940396 22.062482-17.222243 5.701862-7.277754 9.940396-15.794731 12.719696-25.551956 2.775206-9.754155 4.164856-20.184715 4.164856-31.292704 0-11.105942-1.38965-21.535479-4.164856-31.292704C387.113665 536.515347 382.875131 527.998369 377.173269 520.717546zM363.77819 600.187505c-1.428535 6.978948-4.130064 13.05841-8.104585 18.235316-3.978614 5.178953-9.455349 9.231245-16.434298 12.156878-6.978948 2.926656-15.948227 4.389984-26.90272 4.389984l-27.690666 0 0-114.814955 27.690666 0c10.954493 0 19.923772 1.463328 26.90272 4.389984 6.978948 2.926656 12.455683 6.978948 16.434298 12.156878 3.974521 5.178953 6.67605 11.256368 8.104585 18.235316 1.425466 6.978948 2.13871 14.520715 2.13871 22.6253S365.202633 593.208557 363.77819 600.187505z" p-id="24228"></path><path d="M748.931201 613.132328c-1.951445 5.104251-4.653997 9.567913-8.104585 13.395078-3.454682 3.827165-7.579629 6.831592-12.383028 9.005095-4.804423 2.177596-10.354835 3.264347-16.658402 3.264347-8.553817 0-15.94925-1.724271-22.175045-5.177929-6.229888-3.451612-11.295254-8.066723-15.196097-13.845333-3.904936-5.776563-6.79373-12.343119-8.668427-19.698644-1.87879-7.352455-2.814092-14.859429-2.814092-22.512736 0-7.65433 0.935302-15.157211 2.814092-22.512736 1.874697-7.352455 4.762467-13.920034 8.668427-19.698644 3.900843-5.776563 8.966209-10.390651 15.196097-13.845333 6.225795-3.451612 13.621229-5.177929 22.175045-5.177929 5.853311 0 10.992355 0.787946 15.421224 2.363837 4.424776 1.575892 8.290827 3.792373 11.594059 6.641257 3.300162 2.852978 5.999644 6.229888 8.104585 10.129708 2.099824 3.904936 3.749394 8.182356 4.952802 12.83226l28.14092 0c-0.901533-8.702196-3.229554-16.434298-6.978948-23.187095-3.753487-6.753821-8.667404-12.494569-14.745842-17.222243-6.077416-4.727675-13.095249-8.329712-21.049409-10.806113-7.956206-2.476401-16.434298-3.714602-25.438369-3.714602-12.009522 0-22.776749 2.251274-32.305777 6.753821-9.532097 4.502547-17.597797 10.580986-24.201192 18.235316-6.605442 7.65433-11.669784 16.585747-15.196097 26.789133-3.527336 10.209526-5.290493 21.014616-5.290493 32.419364 0 11.559267 1.763157 22.439058 5.290493 32.642444 3.52529 10.208503 8.590656 19.135826 15.196097 26.79118 6.603395 7.653307 14.669094 13.697977 24.201192 18.122753 9.529027 4.424776 20.296255 6.641257 32.305777 6.641257 9.754155 0 18.685571-1.575892 26.790156-4.727675s15.157211-7.615445 21.161972-13.395078c6.001691-5.776563 10.768251-12.641925 14.296611-20.600177 3.524267-7.952112 5.589298-16.733103 6.191003-26.338878l-27.465538 0C752.156662 602.551342 750.879576 608.03217 748.931201 613.132328z" p-id="24229"></path><path d="M570.59349 518.354731c-6.605442-7.65433-14.672164-13.732769-24.201192-18.235316-9.531074-4.502547-20.300348-6.753821-32.304753-6.753821-12.008498 0-22.776749 2.251274-32.305777 6.753821-9.532097 4.502547-17.59882 10.580986-24.201192 18.235316-6.606465 7.65433-11.670807 16.585747-15.196097 26.789133-3.52836 10.209526-5.290493 21.014616-5.290493 32.419364 0 11.559267 1.762133 22.439058 5.290493 32.642444 3.52529 10.208503 8.590656 19.135826 15.196097 26.79118 6.602372 7.653307 14.668071 13.697977 24.201192 18.122753 9.529027 4.424776 20.297278 6.641257 32.305777 6.641257 12.004405 0 22.773679-2.216481 32.304753-6.641257 9.529027-4.424776 17.59575-10.468422 24.201192-18.122753 6.602372-7.65433 11.667737-16.582677 15.196097-26.79118 3.52529-10.204409 5.290493-21.084201 5.290493-32.642444 0-11.404748-1.765203-22.209838-5.290493-32.419364C582.261227 534.939455 577.195861 526.009062 570.59349 518.354731zM560.124044 600.074941c-1.877767 7.355525-4.765537 13.922081-8.66638 19.698644-3.904936 5.77861-8.970302 10.393721-15.19712 13.845333-6.229888 3.453658-13.620206 5.177929-22.175045 5.177929s-15.94925-1.724271-22.175045-5.177929c-6.229888-3.451612-11.295254-8.066723-15.196097-13.845333-3.904936-5.776563-6.792707-12.343119-8.667404-19.698644-1.877767-7.352455-2.814092-14.859429-2.814092-22.512736 0-7.65433 0.936325-15.157211 2.814092-22.512736 1.87572-7.352455 4.762467-13.920034 8.667404-19.698644 3.900843-5.776563 8.966209-10.390651 15.196097-13.845333 6.225795-3.451612 13.620206-5.177929 22.175045-5.177929s15.945157 1.727341 22.175045 5.177929c6.226818 3.453658 11.291161 8.068769 15.19712 13.845333 3.900843 5.77861 6.788613 12.346189 8.66638 19.698644 1.87572 7.355525 2.814092 14.858406 2.814092 22.512736C562.938136 585.216535 561.999764 592.723509 560.124044 600.074941z" p-id="24230"></path></svg>