<?xml version="1.0" standalone="no"?><!DOCTYPE svg PUBLIC "-//W3C//DTD SVG 1.1//EN" "http://www.w3.org/Graphics/SVG/1.1/DTD/svg11.dtd"><svg t="1572402487603" class="icon" viewBox="0 0 1024 1024" version="1.1" xmlns="http://www.w3.org/2000/svg" p-id="19042" xmlns:xlink="http://www.w3.org/1999/xlink" width="200" height="200"><defs><style type="text/css"></style></defs><path d="M853.333 187.733H170.667A111.019 111.019 0 0 0 59.733 298.667v426.666c0 61.184 49.792 110.934 110.934 110.934h682.666c61.184 0 110.934-49.792 110.934-110.934V298.667c0-61.184-49.75-110.934-110.934-110.934z m59.734 537.6c0 32.939-26.838 59.734-59.734 59.734H170.667c-32.939 0-59.734-26.795-59.734-59.734V298.667c0-32.939 26.795-59.734 59.734-59.734h682.666c32.896 0 59.734 26.795 59.734 59.734v426.666z m-81.622-368.298a25.6 25.6 0 0 1-5.888 35.712L552.62 588.757a68.267 68.267 0 0 1-79.446 0.171l-274.73-196.139a25.6 25.6 0 0 1 29.738-41.685L502.87 547.2a17.067 17.067 0 0 0 19.883-0.043l272.981-196.01a25.6 25.6 0 0 1 35.712 5.888z" p-id="19043"></path></svg>