<?xml version="1.0" standalone="no"?><!DOCTYPE svg PUBLIC "-//W3C//DTD SVG 1.1//EN" "http://www.w3.org/Graphics/SVG/1.1/DTD/svg11.dtd"><svg t="1572402324346" class="icon" viewBox="0 0 1024 1024" version="1.1" xmlns="http://www.w3.org/2000/svg" p-id="13804" xmlns:xlink="http://www.w3.org/1999/xlink" width="200" height="200"><defs><style type="text/css"></style></defs><path d="M835.55 48.762c41.255 0 74.672 32.68 74.672 72.992v713.212l6.957-16.907L755.4 982.712l17.932-7.474h-584.92c-41.165 0-74.635-32.829-74.635-73.143V24.38l-24.89 24.38H835.55zM64 0v902.095C64 969.325 119.742 1024 188.413 1024h595.51l7.343-7.474 161.777-164.652 6.957-7.08v-723.04C960 54.492 904.278 0 835.55 0H64z" p-id="13805"></path><path d="M736.08 707.048c-41.32 0-74.747 32.571-74.747 73.096v146.332c0 13.465 11.143 24.381 24.89 24.381 13.745 0 24.888-10.916 24.888-24.38V780.143c0-13.536 11.082-24.334 24.97-24.334H848c13.746 0 24.889-10.916 24.889-24.381 0-13.466-11.143-24.381-24.889-24.381H736.08zM775.164 219.429c13.746 0 24.89-10.916 24.89-24.381 0-13.466-11.144-24.381-24.89-24.381H263.111c-13.746 0-24.889 10.915-24.889 24.38 0 13.466 11.143 24.382 24.89 24.382h512.052zM775.164 365.714c13.746 0 24.89-10.915 24.89-24.38 0-13.466-11.144-24.382-24.89-24.382H263.111c-13.746 0-24.889 10.916-24.889 24.381 0 13.466 11.143 24.381 24.89 24.381h512.052zM775.164 536.381c13.746 0 24.89-10.916 24.89-24.381s-11.144-24.381-24.89-24.381H263.111c-13.746 0-24.889 10.916-24.889 24.381s11.143 24.381 24.89 24.381h512.052z" p-id="13806"></path></svg>