<?xml version="1.0" standalone="no"?><!DOCTYPE svg PUBLIC "-//W3C//DTD SVG 1.1//EN" "http://www.w3.org/Graphics/SVG/1.1/DTD/svg11.dtd"><svg t="1572402244364" class="icon" viewBox="0 0 1024 1024" version="1.1" xmlns="http://www.w3.org/2000/svg" p-id="12474" xmlns:xlink="http://www.w3.org/1999/xlink" width="200" height="200"><defs><style type="text/css"></style></defs><path d="M689.41 928a41.64 41.64 0 0 1-41.64-41.64V778.11A89.52 89.52 0 0 0 625.29 709a41.64 41.64 0 0 1 25.4-69.53C752.28 627.39 846 594.91 846 418.79a166.54 166.54 0 0 0-27.9-92.43 114.5 114.5 0 0 1-17.1-85.77 154.47 154.47 0 0 0 0-58.71 318.51 318.51 0 0 0-87 45.38 41.64 41.64 0 0 1-35 6.25 422.6 422.6 0 0 0-229.83 0 41.64 41.64 0 0 1-35-6.25 308.1 308.1 0 0 0-87.85-45.38 146.56 146.56 0 0 0 0 58.71 118.25 118.25 0 0 1-17.9 86.6A169.46 169.46 0 0 0 280.55 420c0 162 78.27 205.26 195.69 220.25a41.31 41.31 0 0 1 25.4 69.12 85.77 85.77 0 0 0-22.9 65v112a41.64 41.64 0 0 1-83.27 0v-23.74a249.81 249.81 0 0 1-219.42-87A162.38 162.38 0 0 0 127.74 739a41.71 41.71 0 1 1 20.82-80.77 205.26 205.26 0 0 1 83.27 56.62c41.64 41.64 83.27 78.27 162.38 63.29a162 162 0 0 1 9.58-65.78C318 690.68 195.61 629.05 195.61 420.88a249.81 249.81 0 0 1 41.64-138.65 35.39 35.39 0 0 0 5.41-25.81 236.91 236.91 0 0 1 13.74-133.65A41.64 41.64 0 0 1 282.63 99c14.16-4.16 65-12.49 161.13 50a506.29 506.29 0 0 1 236.91 0c96.18-62.45 147-54.54 160.71-50a41.64 41.64 0 0 1 26.23 23.73 237.74 237.74 0 0 1 13.74 134.07 31.23 31.23 0 0 0 4.58 23.73 249.81 249.81 0 0 1 41.64 139.06c0 211.09-121.58 272.3-208.18 291.45a178.2 178.2 0 0 1 9.16 69.53v105.79A41.64 41.64 0 0 1 689.41 928z" p-id="12475"></path></svg>