<?xml version="1.0" standalone="no"?><!DOCTYPE svg PUBLIC "-//W3C//DTD SVG 1.1//EN" "http://www.w3.org/Graphics/SVG/1.1/DTD/svg11.dtd"><svg t="1572402146885" class="icon" viewBox="0 0 1024 1024" version="1.1" xmlns="http://www.w3.org/2000/svg" p-id="11059" xmlns:xlink="http://www.w3.org/1999/xlink" width="200" height="200"><defs><style type="text/css"></style></defs><path d="M910.336 140.288c-7.68-5.632-18.944-6.144-27.136-1.536l-766.976 414.72c-9.216 5.12-14.848 15.36-13.824 26.112 1.024 10.752 8.704 19.456 18.944 22.528l217.088 60.928c14.336 3.584 28.16-4.096 32.256-18.432 3.584-14.336-4.096-28.16-18.432-32.768L198.144 568.32l607.232-328.192-363.008 400.384c-4.096 4.608-6.656 11.264-6.656 17.92v203.776c0 14.848 11.776 26.112 26.112 26.112 14.848 0 26.112-11.776 26.112-26.112v-194.048L855.04 263.168l-63.488 470.016-215.552-59.904c-14.336-3.584-28.16 4.096-32.256 18.432-3.584 14.336 4.096 28.16 18.432 32.768l244.224 67.584c2.048 0.512 4.608 1.024 6.656 1.024 5.12 0 9.728-1.536 14.848-4.096 6.144-4.096 10.24-11.264 11.776-18.432l81.92-605.696c1.024-9.216-3.584-18.944-11.264-24.576z" fill="#5C5E60" p-id="11060"></path></svg>