<?xml version="1.0" standalone="no"?><!DOCTYPE svg PUBLIC "-//W3C//DTD SVG 1.1//EN" "http://www.w3.org/Graphics/SVG/1.1/DTD/svg11.dtd"><svg t="1572403737736" class="icon" viewBox="0 0 1024 1024" version="1.1" xmlns="http://www.w3.org/2000/svg" p-id="3913" xmlns:xlink="http://www.w3.org/1999/xlink" width="200" height="200"><defs><style type="text/css"></style></defs><path d="M512 896C299.936 896 128 724.064 128 512S299.936 128 512 128s384 171.936 384 384-171.936 384-384 384m0-832C264.96 64 64 264.96 64 512s200.96 448 448 448 448-200.96 448-448S759.04 64 512 64" fill="#181818" p-id="3914"></path><path d="M511.68 704a48 48 0 1 0 0 96 48 48 0 0 0 0-96M512 256l-0.288 0.032A160.16 160.16 0 0 0 352 416h64a96.096 96.096 0 0 1 95.712-95.968L512 320c52.928 0 96 43.072 96 96s-43.072 96-96 96l-0.288-0.032V512H480v128h64v-67.264A160.224 160.224 0 0 0 672 416c0-88.224-71.776-160-160-160" fill="#181818" p-id="3915"></path></svg>