<?xml version="1.0" standalone="no"?><!DOCTYPE svg PUBLIC "-//W3C//DTD SVG 1.1//EN" "http://www.w3.org/Graphics/SVG/1.1/DTD/svg11.dtd"><svg t="1572401187669" class="icon" viewBox="0 0 1024 1024" version="1.1" xmlns="http://www.w3.org/2000/svg" p-id="7329" xmlns:xlink="http://www.w3.org/1999/xlink" width="200" height="200"><defs><style type="text/css"></style></defs><path d="M343.797232 455.997905c40.893277-45.039913 78.217091-77.08526 111.961208-96.126832 33.744117-19.039525 62.4697-28.560823 86.194146-28.560823 17.051146 0.858595 42.007711-1.751984 40.490075 31.939942 0 11.881155-13.272918 62.247632-39.816707 151.098408-43.285882 145.370688-64.927799 233.004695-64.927799 262.889739 0 5.737953 1.430651 10.545676 4.299116 14.43238 2.859255 3.89796 5.931367 5.836195 9.214291 5.836195 13.100994 0 124.688678-52.821506 124.688678-52.821506-56.106477 52.821506-97.046828 86.604511-122.847662 101.346967-25.797763 14.741433-46.892186 22.111638-63.264847 22.111638-14.337208 0-25.701568-4.51095-34.087965-13.512383-8.398677-9.00348-12.592387-21.497624-12.592387-37.46913 0-51.182091 30.711915-176.282158 92.1337-375.290991 2.859255-9.414869 13.956519-41.077481-6.757215-37.468107C460.287811 404.403402 343.797232 455.997905 343.797232 455.997905zM578.606102 111.750397c16.412572 0 29.920862 5.437087 40.525893 16.289769 10.590704 10.862916 15.889638 24.768268 15.889638 41.716055 0 23.316127-8.080413 43.838494-24.233053 61.580404-16.166967 17.754191-34.306963 26.618494-54.431244 26.618494-15.892708 0-29.137995-5.561936-39.728699-16.686831-10.605031-11.123872-15.892708-25.688264-15.892708-43.702387 0-23.838038 7.672095-44.100473 23.041868-60.787304C539.137335 120.093813 557.414461 111.750397 578.606102 111.750397z" p-id="7330"></path></svg>