<?xml version="1.0" standalone="no"?><!DOCTYPE svg PUBLIC "-//W3C//DTD SVG 1.1//EN" "http://www.w3.org/Graphics/SVG/1.1/DTD/svg11.dtd"><svg t="1572403297689" class="icon" viewBox="0 0 1024 1024" version="1.1" xmlns="http://www.w3.org/2000/svg" p-id="32738" xmlns:xlink="http://www.w3.org/1999/xlink" width="200" height="200"><defs><style type="text/css"></style></defs><path d="M159.839405 159.574369 159.839405 535.730471 192.598506 535.730471 192.598506 192.283328 831.401494 192.283328 831.401494 830.114175 487.430418 830.114175 487.430418 862.823134 864.160595 862.823134 864.160595 159.574369Z" p-id="32739"></path><path d="M717.665103 291.350624 717.665103 274.05675 573.626569 274.05675 573.626569 305.84985 683.566494 305.84985 704.782701 284.666388Z" p-id="32740"></path><path d="M717.665103 323.538721 717.665103 449.669396 749.505275 449.669396 749.505275 305.84985 735.38058 305.84985Z" p-id="32741"></path><path d="M738.878241 302.358329 735.38058 305.84985 749.505275 305.84985 749.505275 274.05675 717.665103 274.05675 717.665103 291.350624Z" p-id="32742"></path><path d="M554.363853 486.585167 717.665103 323.538721 717.665103 305.84985 683.566494 305.84985 530.643616 458.539414Z" p-id="32743"></path><path d="M717.665103 291.350624 704.782701 284.666388 683.566494 305.84985 717.665103 305.84985Z" p-id="32744"></path><path d="M717.665103 305.84985 717.665103 323.538721 735.38058 305.84985Z" p-id="32745"></path><path d="M738.878241 302.358329 717.665103 291.350624 717.665103 305.84985 735.38058 305.84985Z" p-id="32746"></path><path d="M454.671317 830.114175 192.598506 830.114175 192.598506 568.440453 192.598506 535.730471 159.839405 535.730471 159.839405 862.823134 487.430418 862.823134 487.430418 830.114175Z" p-id="32747"></path><path d="M454.671317 568.440453 454.671317 830.114175 487.430418 830.114175 487.430418 535.730471 192.598506 535.730471 192.598506 568.440453Z" p-id="32748"></path></svg>