<?xml version="1.0" standalone="no"?><!DOCTYPE svg PUBLIC "-//W3C//DTD SVG 1.1//EN" "http://www.w3.org/Graphics/SVG/1.1/DTD/svg11.dtd"><svg t="1572402683039" class="icon" viewBox="0 0 1024 1024" version="1.1" xmlns="http://www.w3.org/2000/svg" p-id="20479" xmlns:xlink="http://www.w3.org/1999/xlink" width="200" height="200"><defs><style type="text/css"></style></defs><path d="M367.104 262.656h484.864c17.92 0 32.256-14.336 32.256-32.256s-14.336-32.256-32.256-32.256H367.104c-17.92 0-32.256 14.336-32.256 32.256s14.336 32.256 32.256 32.256z m0 280.576h483.328c17.92 0 32.256-14.336 32.256-32.256s-14.336-32.256-32.256-32.256H367.104c-17.92 0-32.256 14.336-32.256 32.256s14.336 32.256 32.256 32.256z m484.864 218.624H367.104c-17.92 0-32.256 14.336-32.256 32.256s14.336 32.256 32.256 32.256h484.864c17.92 0 32.256-14.336 32.256-32.256s-14.848-32.256-32.256-32.256zM140.288 230.4c0 35.328 28.672 64 64 64S268.288 265.728 268.288 230.4s-28.672-64-64-64S140.288 195.072 140.288 230.4z m0 280.576c0 35.328 28.672 64 64 64s64-28.672 64-64-28.672-64-64-64-64 28.672-64 64z m0 282.624c0 35.328 28.672 64 64 64s64-28.672 64-64-28.672-64-64-64-64 28.672-64 64z" fill="" p-id="20480"></path></svg>