<?xml version="1.0" standalone="no"?><!DOCTYPE svg PUBLIC "-//W3C//DTD SVG 1.1//EN" "http://www.w3.org/Graphics/SVG/1.1/DTD/svg11.dtd"><svg t="1572782864082" class="icon" viewBox="0 0 1024 1024" version="1.1" xmlns="http://www.w3.org/2000/svg" p-id="3364" xmlns:xlink="http://www.w3.org/1999/xlink" width="200" height="200"><defs><style type="text/css"></style></defs><path d="M749.29152 664.50944c-55.43936 0-100.5312 45.09696-100.5312 100.45952 0 55.43936 45.09184 100.53632 100.5312 100.53632 55.4496 0 100.61824-45.09184 100.61824-100.53632 0-55.36256-45.16864-100.45952-100.61824-100.45952z m0 149.19168c-26.87488 0-48.72704-21.85728-48.72704-48.72704 0-26.83392 21.85216-48.6912 48.72704-48.6912 26.92096 0 48.77824 21.85728 48.77824 48.6912 0 26.86976-21.85728 48.72704-48.77824 48.72704z m265.95328-101.2224c-3.79392-19.90144-16.5632-32.77824-32.97792-32.77824h-2.29888c-31.37536 0-56.89856-25.50272-56.89856-56.86784 0-8.23296 3.55328-18.31936 4.93568-21.49888 7.78752-17.50016 1.80736-38.9632-15.48288-50.92864l-66.60096-36.81792a41.94304 41.94304 0 0 0-16.7168-3.38944c-12.07296 0-24.00256 4.89984-31.8976 13.06624-8.2944 8.5504-30.29504 26.19392-45.48608 26.19392-15.32928 0-37.48864-17.98656-45.77792-26.6496-7.97696-8.38144-19.97312-13.3888-32.2048-13.3888a41.09312 41.09312 0 0 0-16.3328 3.27168l-1.26464 0.512-67.74784 37.17632-1.60768 1.03936c-15.80032 10.96192-21.78048 32.42496-14.06464 49.7664 0.53248 1.22368 5.05856 12.23168 5.05856 21.65248 0 31.37024-25.57952 56.87296-56.96 56.87296h-2.64704c-16.03072 0-28.81536 12.88192-32.59392 32.8192-0.56832 3.072-5.61664 30.55616-5.61664 52.83328 0 22.24128 5.0432 49.72544 5.61664 52.83328 3.77344 19.86048 16.5632 32.7424 32.9728 32.7424h2.26304c31.38048 0 56.96 25.54368 56.96 56.89856 0 8.20736-3.6096 18.33472-4.992 21.50912-7.78752 17.44896-1.80736 38.92224 15.41632 50.88256l65.33632 36.38272c5.1712 2.26304 10.8544 3.42016 16.75776 3.42016 12.26752 0 24.29952-5.10464 32.2048-13.70112 8.04352-8.69376 30.90432-27.83744 46.46912-27.83744 15.80032 0 38.3744 19.13856 46.85312 28.416 7.89504 8.73984 20.01408 13.92128 32.39424 13.92128 5.83168 0 11.392-1.11616 18.10432-4.10624l66.05824-36.46464 1.57184-1.03424c15.76448-10.92608 21.74464-32.35328 14.03392-49.72544-0.49664-1.22368-5.01248-12.23168-5.01248-21.66272 0-31.36 25.5232-56.90368 56.89856-56.90368h2.64192c16.0256 0 28.83072-12.88192 32.5888-32.70144 0.04096-0.26624 5.63712-29.48096 5.63712-52.87424 0-22.27712-5.06368-49.7664-5.59104-52.87936z m-49.54624 87.61344c-53.6064 6.97344-94.47424 52.7616-94.47424 107.74528 0 12.65664 3.07712 24.69376 5.76 32.90624l-47.6672 26.29632a186.49088 186.49088 0 0 0-19.59936-16.75264c-21.07904-15.60576-41.48736-23.58272-60.65664-23.58272-18.97984 0-39.22432 7.82336-60.15488 23.16288a192.29696 192.29696 0 0 0-19.48672 16.4096l-45.54752-25.45664c2.71872-8.21248 5.7856-20.3264 5.7856-32.97792 0-54.98368-40.86784-100.76672-94.47424-107.74528-1.37728-8.88832-3.3024-23.30624-3.3024-34.73408 0-11.50464 1.92512-25.91744 3.3024-34.78016 53.6064-7.00928 94.47424-52.79232 94.47424-107.74528 0-12.61568-3.06688-24.68352-5.74464-32.84992l49.19296-26.99264a182.26688 182.26688 0 0 0 19.51232 16.06144c20.66432 14.72512 40.57088 22.20544 59.19744 22.20544 18.41152 0 38.15936-7.36256 58.68032-21.78048a187.47904 187.47904 0 0 0 19.39456-15.72352l47.12448 26.15808c-2.71872 8.16128-5.79584 20.23936-5.79584 32.92672 0 54.95296 40.86784 100.736 94.47936 107.74528 1.41312 9.0112 3.29728 23.43424 3.29728 34.78016 0.00512 11.37664-1.87392 25.71264-3.29728 34.72384zM67.23584 947.21024v-56.88832c0-193.52576 149.3504-352.95232 339.59936-370.92864l-0.07168-0.0512h0.49664a383.5392 383.5392 0 0 1 35.40992-1.69472c1.80736 0 3.56352 0.09216 5.36064 0.13312 42.07104-3.28704 105.71776-13.15328 138.99776-42.83392l16.30208-12.672c63.61088-49.65376 100.10624-123.80672 100.10624-203.4432C703.4368 116.096 586.41408 0 442.61376 0c-143.8208 0-260.82304 116.10112-260.82304 258.83136 0 79.63648 36.48512 153.78944 100.09088 203.4432l16.29696 12.672-19.18976 7.61344C109.5168 549.79072 0 709.8368 0 890.32192v90.20928c0 18.33472 15.06816 33.28 33.60768 33.28h491.12064a339.56864 339.56864 0 0 1-40.63232-66.60096H67.23584z m181.76-688.37888c0-105.99936 86.87104-192.2304 193.6128-192.2304 106.77248 0 193.60768 86.23104 193.60768 192.2304s-86.8352 192.2304-193.60768 192.2304c-106.75712 0-193.6128-86.23616-193.6128-192.2304z" fill="" p-id="3365"></path></svg>