<?xml version="1.0" standalone="no"?><!DOCTYPE svg PUBLIC "-//W3C//DTD SVG 1.1//EN" "http://www.w3.org/Graphics/SVG/1.1/DTD/svg11.dtd"><svg t="1576812679260" class="icon" viewBox="0 0 1024 1024" version="1.1" xmlns="http://www.w3.org/2000/svg" p-id="11050" xmlns:xlink="http://www.w3.org/1999/xlink" width="200" height="200"><defs><style type="text/css"></style></defs><path d="M181.333333 512c0-17.066667 14.933333-32 32-32s32 14.933333 32 32c0 147.2 119.466667 266.666667 266.666667 266.666667S778.666667 659.2 778.666667 512c0-17.066667 14.933333-32 32-32s32 14.933333 32 32c0 183.466667-147.2 330.666667-330.666667 330.666667S181.333333 695.466667 181.333333 512z m74.666667-170.666667c-36.266667 0-64-27.733333-64-64s27.733333-64 64-64 64 27.733333 64 64-27.733333 64-64 64z m512 0c-36.266667 0-64-27.733333-64-64s27.733333-64 64-64 64 27.733333 64 64-27.733333 64-64 64z" p-id="11051"></path></svg>