<?xml version="1.0" standalone="no"?><!DOCTYPE svg PUBLIC "-//W3C//DTD SVG 1.1//EN" "http://www.w3.org/Graphics/SVG/1.1/DTD/svg11.dtd"><svg t="1572402521041" class="icon" viewBox="0 0 1024 1024" version="1.1" xmlns="http://www.w3.org/2000/svg" p-id="19757" xmlns:xlink="http://www.w3.org/1999/xlink" width="200" height="200"><defs><style type="text/css"></style></defs><path d="M750.08 179.2c3.584 0 6.656 1.024 9.216 3.584l147.968 147.968 0.512 0.512 0.512 0.512c2.048 2.048 3.072 3.584 3.072 6.144 0 2.048-0.512 5.12-3.584 8.704l-86.016 86.016c-2.56 2.56-4.096 2.56-4.608 2.56-1.024 0-3.584-1.024-5.12-2.56l-14.336-13.824h-20.992c-27.648 0-48.128 20.992-48.128 48.128v308.224c0 38.912-31.232 70.144-70.144 70.144h-291.84c-38.912 0-70.144-31.232-70.144-70.144V466.432c0-27.648-20.992-48.128-48.128-48.128h-20.992l-13.824 13.824c-1.536 1.536-3.584 2.56-4.608 2.56s-3.584-1.024-5.12-2.56L117.248 346.112l-0.512-0.512-0.512-0.512c-2.048-2.048-3.072-3.584-3.072-6.144 0-2.048 0.512-5.12 3.584-8.704L266.24 182.784l1.536-1.536 1.024-1.536s2.56-1.536 9.728-1.536h32.256c2.56 0 4.608 1.536 5.12 2.048l1.536 3.072 2.048 3.072c40.448 58.368 113.664 94.72 191.488 94.72 79.872 0 151.552-35.328 192-95.232 4.608-7.168 9.216-7.168 10.752-7.168l36.352 0.512m0-46.592h-36.352c-20.992 0-37.888 10.24-49.664 27.648-30.72 45.568-88.064 74.24-153.088 74.24s-122.88-31.232-153.088-74.752c-9.216-17.92-27.648-27.648-46.592-27.648h-32.256c-20.992 0-34.816 6.144-45.568 17.92l-148.48 147.968c-23.04 23.04-23.04 59.904 0 81.92L171.52 465.92c10.24 10.24 24.576 15.872 37.888 15.872s27.648-6.144 37.888-15.872h1.536c1.536 0 1.536 0 1.536 1.536v308.224c0 64 52.736 116.736 116.736 116.736h291.84c64 0 116.736-52.736 116.736-116.736V466.432c0-1.536 0-1.536 1.536-1.536h1.536c10.24 10.24 24.576 15.872 37.888 15.872 14.848 0 27.648-6.144 37.888-15.872L940.544 378.88c23.04-23.04 23.04-59.904 0-81.92L793.6 149.504c-12.288-11.264-26.624-16.896-43.52-16.896z" p-id="19758"></path></svg>